<svg width="291" height="123" viewBox="0 0 291 123" fill="none" xmlns="http://www.w3.org/2000/svg">
<path d="M149.779 7.26367L194.775 51.3587" stroke="black" style="stroke:black;stroke-opacity:1;" stroke-width="8"/>
<path d="M124.583 33.1177L169.579 77.2127" stroke="black" style="stroke:black;stroke-opacity:1;" stroke-width="8"/>
<path d="M193.862 46.6294L164.862 76.3408" stroke="black" style="stroke:black;stroke-opacity:1;" stroke-width="8"/>
<path d="M141.943 74.8393L97.3956 30.2915" stroke="black" style="stroke:black;stroke-opacity:1;" stroke-width="8"/>
<path d="M166.719 50.2113L122.172 5.66357" stroke="black" style="stroke:black;stroke-opacity:1;" stroke-width="8"/>
<path d="M97.1853 35.7046L127.185 5.99316" stroke="black" style="stroke:black;stroke-opacity:1;" stroke-width="8"/>
<path d="M64.0156 120H55.6562L53.4492 114.512H41.6914L39.4453 120H31.0859L43.0586 92.9297H52.082L64.0156 120ZM51.5742 109.805L47.6094 99.9219L43.6055 109.805H51.5742ZM71.8594 120H64.8086V92.9297H71.8594V120ZM95.6797 120H88.6289V117.168C87.6393 118.236 86.5977 119.036 85.5039 119.57C84.4232 120.091 83.1211 120.352 81.5977 120.352C78.5898 120.352 76.6432 119.479 75.7578 117.734C74.8724 115.977 74.4297 113.997 74.4297 111.797V100.117H81.4805V110.859C81.4805 111.94 81.6562 112.891 82.0078 113.711C82.3724 114.518 83.1536 114.922 84.3516 114.922C85.3802 114.922 86.194 114.629 86.793 114.043C87.3919 113.457 88.0039 112.708 88.6289 111.797V100.117H95.6797V120ZM133.621 120H126.59V109.395C126.59 107.988 126.355 106.94 125.887 106.25C125.431 105.547 124.702 105.195 123.699 105.195C122.723 105.195 121.922 105.495 121.297 106.094C120.672 106.68 120.047 107.422 119.422 108.32V120H112.391V109.395C112.391 108.053 112.176 107.018 111.746 106.289C111.316 105.56 110.555 105.195 109.461 105.195C108.94 105.195 108.458 105.299 108.016 105.508C107.586 105.716 107.234 105.951 106.961 106.211C106.688 106.471 106.355 106.855 105.965 107.363C105.574 107.871 105.327 108.19 105.223 108.32V120H98.1914V100.117H105.223V102.969C106.277 101.849 107.352 101.035 108.445 100.527C109.539 100.02 110.802 99.7656 112.234 99.7656C112.911 99.7656 113.556 99.8307 114.168 99.9609C114.78 100.078 115.379 100.286 115.965 100.586C116.564 100.885 117.104 101.296 117.586 101.816C118.068 102.337 118.452 102.943 118.738 103.633C119.871 102.357 121.043 101.393 122.254 100.742C123.478 100.091 124.884 99.7656 126.473 99.7656C128.061 99.7656 129.389 100.085 130.457 100.723C131.538 101.361 132.332 102.285 132.84 103.496C133.361 104.694 133.621 106.152 133.621 107.871V120ZM157.031 120H150V109.277C150 108.184 149.818 107.233 149.453 106.426C149.102 105.605 148.32 105.195 147.109 105.195C146.536 105.195 146.029 105.306 145.586 105.527C145.156 105.736 144.766 106.009 144.414 106.348C144.076 106.686 143.789 107.012 143.555 107.324C143.32 107.637 143.079 107.969 142.832 108.32V120H135.801V100.117H142.832V102.969C143.939 101.784 145.046 100.957 146.152 100.488C147.272 100.007 148.516 99.7656 149.883 99.7656C154.648 99.7656 157.031 102.617 157.031 108.32V120ZM166.105 95.5273C166.105 96.3477 165.812 97.0443 165.227 97.6172C164.641 98.1901 163.944 98.4766 163.137 98.4766C162.59 98.4766 162.089 98.3464 161.633 98.0859C161.19 97.8255 160.839 97.474 160.578 97.0312C160.318 96.5755 160.188 96.0742 160.188 95.5273C160.188 94.7201 160.474 94.0234 161.047 93.4375C161.62 92.8516 162.316 92.5586 163.137 92.5586C163.944 92.5586 164.641 92.8516 165.227 93.4375C165.812 94.0234 166.105 94.7201 166.105 95.5273ZM166.672 120H159.621V100.117H166.672V120ZM201.129 120H180.562V92.9297H188.727V113.516H201.129V120ZM209.559 95.5273C209.559 96.3477 209.266 97.0443 208.68 97.6172C208.094 98.1901 207.397 98.4766 206.59 98.4766C206.043 98.4766 205.542 98.3464 205.086 98.0859C204.643 97.8255 204.292 97.474 204.031 97.0312C203.771 96.5755 203.641 96.0742 203.641 95.5273C203.641 94.7201 203.927 94.0234 204.5 93.4375C205.073 92.8516 205.77 92.5586 206.59 92.5586C207.397 92.5586 208.094 92.8516 208.68 93.4375C209.266 94.0234 209.559 94.7201 209.559 95.5273ZM210.125 120H203.074V100.117H210.125V120ZM234.219 120H227.188V109.277C227.188 108.184 227.005 107.233 226.641 106.426C226.289 105.605 225.508 105.195 224.297 105.195C223.724 105.195 223.216 105.306 222.773 105.527C222.344 105.736 221.953 106.009 221.602 106.348C221.263 106.686 220.977 107.012 220.742 107.324C220.508 107.637 220.267 107.969 220.02 108.32V120H212.988V100.117H220.02V102.969C221.126 101.784 222.233 100.957 223.34 100.488C224.46 100.007 225.703 99.7656 227.07 99.7656C231.836 99.7656 234.219 102.617 234.219 108.32V120ZM260.09 120H251.164L243.527 110.566V120H236.418V92.9297H243.527V108.809L250.5 100.117H258.938L251.164 109.395L260.09 120Z" fill="black" style="fill:black;fill-opacity:1;"/>
</svg>
