<?xml version="1.0" encoding="utf-8"?>
<!-- Generator: Adobe Illustrator 19.2.1, SVG Export Plug-In . SVG Version: 6.00 Build 0)  -->
<svg version="1.1" id="layer" xmlns="http://www.w3.org/2000/svg" xmlns:xlink="http://www.w3.org/1999/xlink" x="0px" y="0px"
	 viewBox="0 0 652 652" style="enable-background:new 0 0 652 652;" xml:space="preserve">
<style type="text/css">
	.st0{fill:#275D38;}
</style>
<path class="st0" d="M76.7,472.9h8.8V516c0,4.4-3.5,8.8-8.8,8.8H59.1c-4.4,0-8.8-3.5-8.8-8.8v-43.1h8.8v41.4c0,0.9,0.9,1.8,1.8,1.8
	h11.4c0.9,0,1.8-0.9,1.8-1.8L76.7,472.9L76.7,472.9z"/>
<polygon class="st0" points="152.4,524 143.6,524 124.2,491.4 124.2,524 115.4,524 115.4,472.9 124.2,472.9 143.6,506.4 
	143.6,472.9 152.4,472.9 "/>
<rect x="182.3" y="472.9" class="st0" width="8.8" height="51.1"/>
<polygon class="st0" points="240.4,524 230.7,524 215.7,472.9 224.5,472.9 236,509.9 246.6,472.9 255.4,472.9 "/>
<polygon class="st0" points="279.1,472.9 309.9,472.9 309.9,481.7 287.9,481.7 287.9,494 308.2,494 308.2,502.8 287.9,502.8 
	287.9,516 309.9,516 309.9,524 279.1,524 "/>
<path class="st0" d="M366.3,483.5c0-0.9-0.9-1.8-1.8-1.8h-15v15h15c0.9,0,1.8-0.9,1.8-1.8V483.5z M359.2,504.6h-9.7v20.2h-8.8v-51.9
	h26.4c4.4,0,8.8,3.5,8.8,8.8v15c0,4.4-2.6,7-6.2,7.9l9.7,20.2h-10.6L359.2,504.6z"/>
<path class="st0" d="M413.8,500.2c-4.4-1.8-7.9-3.5-7.9-7.9v-10.6c0-4.4,3.5-8.8,7.9-8.8h15.8c4.4,0,8.8,3.5,8.8,8.8v6.2l-8.8,1.8
	v-5.3c0-0.9-0.9-1.8-1.8-1.8h-10.6c-0.9,0-1.8,0.9-1.8,1.8v6.2c0,0.9,0.9,1.8,1.8,2.6c4.4,0.9,8.8,2.6,14.1,3.5
	c4.4,0.9,7.9,3.5,7.9,7.9V516c0,4.4-3.5,8.8-7.9,8.8h-16.7c-4.4,0-8.8-3.5-8.8-8.8v-6.2l8.8-1.8v5.3c0,0.9,0.9,1.8,1.8,1.8H427
	c0.9,0,1.8-0.9,1.8-1.8v-7c0-0.9-0.9-1.8-1.8-1.8C421.7,502.8,419.1,502,413.8,500.2"/>
<rect x="467.5" y="472.9" class="st0" width="8.8" height="51.1"/>
<polygon class="st0" points="499.2,472.9 536.2,472.9 536.2,481.7 522.1,481.7 522.1,524 513.3,524 513.3,481.7 499.2,481.7 "/>
<polygon class="st0" points="569.6,493.2 579.3,472.9 589,472.9 574,503.7 574,524 565.2,524 565.2,503.7 549.4,472.9 559.1,472.9 
	"/>
<path class="st0" d="M74,119.9h7.9v38.7c0,4.4-3.5,7.9-7.9,7.9h-15c-4.4,0-7-3.5-7-7.9v-38.7h7.9v37c0,0.9,0.9,1.8,1.8,1.8h10.6
	c0.9,0,1.8-0.9,1.8-1.8V119.9L74,119.9z"/>
<polygon class="st0" points="100.4,119.9 133.9,119.9 133.9,127.8 121.6,127.8 121.6,166.6 112.8,166.6 112.8,127.8 100.4,127.8 "/>
<path class="st0" d="M159.4,149H170l-5.3-17.6L159.4,149z M184.1,166.6h-8.8l-3.5-9.7h-15.8l-3.5,9.7h-7.9l15.8-46.7h7.9
	L184.1,166.6z"/>
<polygon class="st0" points="229.8,146.3 214.9,146.3 214.9,166.6 206.1,166.6 206.1,119.9 214.9,119.9 214.9,139.3 229.8,139.3 
	229.8,119.9 238.6,119.9 238.6,166.6 229.8,166.6 "/>
<polygon class="st0" points="315.2,166.6 307.3,166.6 293.2,119.9 301.1,119.9 310.8,154.2 321.4,119.9 329.3,119.9 "/>
<path class="st0" d="M357.5,149H368l-5.3-17.6L357.5,149z M382.1,166.6h-8.8l-3.5-9.7H354l-3.5,9.7h-7.9l15.8-46.7h7.9L382.1,166.6z
	"/>
<polygon class="st0" points="405,119.9 413.8,119.9 413.8,158.6 432.3,158.6 432.3,166.6 405,166.6 "/>
<polygon class="st0" points="456.1,119.9 464.9,119.9 464.9,158.6 483.4,158.6 483.4,166.6 456.1,166.6 "/>
<polygon class="st0" points="506.2,119.9 534.4,119.9 534.4,127.8 515,127.8 515,139.3 532.6,139.3 532.6,147.2 515,147.2 
	515,158.6 534.4,158.6 534.4,166.6 506.2,166.6 "/>
<polygon class="st0" points="572.3,138.4 581.1,119.9 589.9,119.9 575.8,148.1 575.8,166.6 567.9,166.6 567.9,148.1 553.8,119.9 
	562.6,119.9 "/>
<rect x="34.4" y="435.1" class="st0" width="572.2" height="10.6"/>
<rect x="34.4" y="551.3" class="st0" width="572.2" height="20.2"/>
<rect x="34.4" y="71.5" class="st0" width="572.2" height="20.2"/>
<rect x="34.4" y="194.7" class="st0" width="572.2" height="10.6"/>
<path class="st0" d="M598.7,538.9v7.9h-1.8v-11.4h1.8l3.5,7l3.5-7h0.9v11.4h-1.8v-7.9l-2.6,6.2h-0.9L598.7,538.9z M587.2,535.4h7.9
	v1.8h-3.5v9.7h-1.8v-9.7h-3.5L587.2,535.4L587.2,535.4z"/>
<polygon class="st0" points="368,236.1 320.5,365.5 272.1,236.1 234.2,236.1 295.9,404.2 344.3,404.2 405.9,236.1 "/>
<polygon class="st0" points="65.2,404.2 196.4,404.2 211.3,365.5 211.3,236.1 135.6,236.1 135.6,272.2 172.6,272.2 172.6,365.5 
	89,365.5 89,236.1 51.1,236.1 51.1,365.5 "/>
<polygon class="st0" points="551.1,365.5 467.5,365.5 467.5,236.1 429.7,236.1 429.7,365.5 443.7,404.2 574.9,404.2 589.9,365.5 
	589.9,236.1 551.1,236.1 "/>
</svg>
